# xmcd CD database file
#
# Track frame offsets:
#	150
#	18787
#	37312
#
# Disc length: 744 seconds
#
# Revision: 10
# Processed by: cddbd v1.5.2PL0 Copyright (c) Steve Scherf et al.
# Submitted via: CDex 1.70beta2
#
DISCID=1d02e603
DTITLE=モーニング娘。 - シャボン玉
DYEAR=2003
DGENRE=JPop
TTITLE0=シャボン玉
TTITLE1=涙にはしたくない
TTITLE2=シャボン玉 (Instrumental)
EXTD=YEAR: 2003
EXTT0=
EXTT1=
EXTT2=
PLAYORDER=
